<svg width="111" height="31" viewBox="0 0 111 31" fill="none" xmlns="http://www.w3.org/2000/svg">
<path d="M58.54 0.0900269V19H62.54V0.0900269H58.54ZM81.39 0.0900269L76.19 12.8H75.96L70.76 0.0900269H65.83V19H69.7V6.65003H69.86L74.76 18.91H77.4L82.29 6.69003H82.45V19H86.32V0.0900269H81.39ZM93.62 15.7V11.19H101.7V7.89003H93.62V3.39003H102.36V0.0900269H89.62V19H102.4V15.7H93.62Z" fill="#333333"/>
<path d="M52.38 11.65C52.44 11.63 52.49 11.61 52.55 11.58C53.58 11.1 54.36 10.41 54.9 9.51003C55.44 8.60003 55.71 7.52003 55.71 6.27003C55.71 5.02003 55.45 3.93003 54.91 3.01003C54.38 2.08003 53.61 1.36003 52.59 0.860027C51.58 0.350027 50.37 0.0900269 48.94 0.0900269H41.48V19H45.48V12.3H48.4L51.98 19H56.39L52.38 11.65ZM45.48 3.36003H48.17C48.94 3.36003 49.58 3.47003 50.08 3.70003C50.59 3.92003 50.97 4.25003 51.22 4.68003C51.47 5.11003 51.6 5.64003 51.6 6.27003C51.6 6.89003 51.47 7.41003 51.22 7.83003C50.97 8.25003 50.6 8.56003 50.09 8.77003C49.59 8.98003 48.95 9.08003 48.19 9.08003H45.48V3.36003Z" fill="#333333"/>
<path d="M38.08 3.17003C37.55 2.21003 36.78 1.45003 35.77 0.910027C34.76 0.360027 33.54 0.0900269 32.1 0.0900269H24.64V19H28.64V12.87H32C33.45 12.87 34.69 12.6 35.71 12.07C36.74 11.53 37.53 10.78 38.07 9.82003C38.61 8.86003 38.88 7.75003 38.88 6.50003C38.88 5.24003 38.61 4.13003 38.08 3.17003ZM34.38 8.15003C34.14 8.63003 33.76 9.00003 33.26 9.27003C32.76 9.53003 32.13 9.67003 31.36 9.67003H28.64V3.36003H31.34C32.11 3.36003 32.75 3.49003 33.26 3.76003C33.76 4.01003 34.14 4.38003 34.38 4.86003C34.64 5.32003 34.76 5.87003 34.76 6.50003C34.76 7.12003 34.64 7.67003 34.38 8.15003Z" fill="#333333"/>
<path d="M29.98 27.12C29.88 26.88 29.73 26.68 29.53 26.51C29.34 26.33 29.11 26.19 28.84 26.07C28.58 25.95 28.29 25.86 27.97 25.78L27.32 25.63C27.16 25.59 27.01 25.55 26.87 25.5C26.73 25.45 26.61 25.39 26.5 25.32C26.39 25.25 26.31 25.16 26.25 25.07C26.19 24.97 26.16 24.86 26.17 24.73C26.17 24.57 26.21 24.43 26.3 24.31C26.39 24.18 26.53 24.09 26.7 24.02C26.87 23.95 27.08 23.91 27.33 23.91C27.7 23.91 28 23.99 28.21 24.15C28.43 24.31 28.55 24.53 28.58 24.82H30.05C30.04 24.39 29.93 24 29.7 23.68C29.48 23.35 29.16 23.09 28.76 22.9C28.36 22.72 27.88 22.63 27.35 22.63C26.81 22.63 26.34 22.72 25.92 22.9C25.51 23.09 25.18 23.35 24.94 23.68C24.7 24 24.59 24.39 24.59 24.83C24.59 25.37 24.76 25.79 25.12 26.11C25.47 26.43 25.96 26.66 26.57 26.81L27.36 27.01C27.63 27.07 27.85 27.14 28.03 27.22C28.22 27.3 28.36 27.4 28.45 27.51C28.55 27.62 28.6 27.76 28.6 27.92C28.6 28.09 28.55 28.25 28.44 28.38C28.33 28.52 28.18 28.62 27.99 28.7C27.8 28.78 27.57 28.81 27.31 28.81C27.04 28.81 26.81 28.77 26.6 28.69C26.39 28.61 26.22 28.49 26.1 28.33C25.97 28.16 25.9 27.96 25.89 27.72H24.4C24.41 28.24 24.54 28.68 24.78 29.03C25.02 29.39 25.36 29.65 25.79 29.83C26.23 30.01 26.74 30.1 27.33 30.1C27.92 30.1 28.42 30.01 28.84 29.84C29.27 29.66 29.59 29.4 29.81 29.08C30.03 28.75 30.15 28.37 30.15 27.92C30.15 27.62 30.09 27.35 29.98 27.12ZM32.72 28.73V27H35.83V25.73H32.72V24H36.09V22.73H31.18V30H36.1V28.73H32.72ZM48.58 22.73L46.81 28.25H46.75L44.99 22.73H43.28L45.79 30H47.77L50.28 22.73H48.58ZM52.69 28.73V27H55.8V25.73H52.69V24H56.06V22.73H51.16V30H56.07V28.73H52.69ZM73.32 23.91C73.12 23.54 72.82 23.25 72.43 23.04C72.05 22.83 71.58 22.73 71.02 22.73H68.16V26.365V30H69.69V27.64H70.99C71.54 27.64 72.02 27.54 72.41 27.33C72.81 27.13 73.11 26.84 73.32 26.47C73.53 26.1 73.63 25.67 73.63 25.19C73.63 24.71 73.53 24.28 73.32 23.91ZM71.9 25.83C71.81 26.01 71.66 26.15 71.47 26.26C71.28 26.36 71.03 26.41 70.74 26.41H69.69V23.98H70.73C71.03 23.98 71.27 24.04 71.47 24.14C71.66 24.24 71.81 24.38 71.9 24.56C72 24.74 72.05 24.95 72.05 25.19C72.05 25.43 72 25.64 71.9 25.83ZM87.56 22.73V24H89.78V30H91.3V24H93.53V22.73H87.56ZM99.86 27.12C99.76 26.88 99.61 26.68 99.41 26.51C99.22 26.33 98.99 26.19 98.72 26.07C98.46 25.95 98.17 25.86 97.85 25.78L97.2 25.63C97.04 25.59 96.89 25.55 96.75 25.5C96.61 25.45 96.49 25.39 96.38 25.32C96.27 25.25 96.19 25.16 96.13 25.07C96.07 24.97 96.04 24.86 96.05 24.73C96.05 24.57 96.09 24.43 96.18 24.31C96.27 24.18 96.41 24.09 96.58 24.02C96.75 23.95 96.96 23.91 97.22 23.91C97.58 23.91 97.88 23.99 98.09 24.15C98.31 24.31 98.43 24.53 98.46 24.82H99.93C99.92 24.39 99.81 24 99.58 23.68C99.36 23.35 99.04 23.09 98.64 22.9C98.24 22.72 97.77 22.63 97.23 22.63C96.7 22.63 96.22 22.72 95.81 22.9C95.39 23.09 95.06 23.35 94.82 23.68C94.59 24 94.47 24.39 94.47 24.83C94.47 25.37 94.64 25.79 95 26.11C95.35 26.43 95.84 26.66 96.45 26.81L97.24 27.01C97.51 27.07 97.73 27.14 97.92 27.22C98.1 27.3 98.24 27.4 98.33 27.51C98.43 27.62 98.48 27.76 98.48 27.92C98.48 28.09 98.43 28.25 98.32 28.38C98.21 28.52 98.06 28.62 97.87 28.7C97.68 28.78 97.45 28.81 97.19 28.81C96.93 28.81 96.69 28.77 96.48 28.69C96.27 28.61 96.1 28.49 95.98 28.33C95.85 28.16 95.78 27.96 95.77 27.72H94.28C94.29 28.24 94.42 28.68 94.66 29.03C94.9 29.39 95.24 29.65 95.67 29.83C96.11 30.01 96.62 30.1 97.21 30.1C97.8 30.1 98.31 30.01 98.72 29.84C99.15 29.66 99.47 29.4 99.69 29.08C99.92 28.75 100.03 28.37 100.03 27.92C100.03 27.62 99.97 27.35 99.86 27.12Z" fill="#333333"/>
<path d="M41.5 27.17C41.52 27.16 41.55 27.15 41.57 27.14C41.96 26.96 42.26 26.7 42.47 26.35C42.68 26 42.78 25.59 42.78 25.1C42.78 24.62 42.68 24.2 42.47 23.85C42.27 23.49 41.97 23.22 41.58 23.02C41.2 22.83 40.73 22.73 40.18 22.73H37.31V30H38.85V27.42H39.97L41.35 30H43.04L41.5 27.17ZM39.89 26.19H38.85V23.98H39.88C40.18 23.98 40.42 24.03 40.62 24.12C40.81 24.2 40.96 24.33 41.05 24.49C41.15 24.66 41.2 24.86 41.2 25.1C41.2 25.34 41.15 25.54 41.05 25.7C40.96 25.86 40.82 25.98 40.62 26.07C40.43 26.15 40.18 26.19 39.89 26.19Z" fill="#333333"/>
<path d="M61.47 27.17C61.49 27.16 61.52 27.15 61.54 27.14C61.93 26.96 62.23 26.7 62.44 26.35C62.65 26 62.75 25.59 62.75 25.1C62.75 24.62 62.65 24.2 62.45 23.85C62.24 23.49 61.94 23.22 61.55 23.02C61.17 22.83 60.7 22.73 60.15 22.73H57.28V30H58.82V27.42H59.94L61.32 30H63.01L61.47 27.17ZM59.86 26.19H58.82V23.98H59.85C60.15 23.98 60.39 24.03 60.59 24.12C60.78 24.2 60.93 24.33 61.03 24.49C61.12 24.66 61.17 24.86 61.17 25.1C61.17 25.34 61.12 25.54 61.03 25.7C60.93 25.86 60.79 25.98 60.59 26.07C60.4 26.15 60.15 26.19 59.86 26.19Z" fill="#333333"/>
<path d="M77.89 22.73H75.91L73.4 30H75.04L75.58 28.34H78.21L78.75 30H80.4L77.89 22.73ZM75.97 27.14L76.87 24.39H76.93L77.82 27.14H75.97Z" fill="#333333"/>
<path d="M17.5 0H1.5C0.67 0 0 0.67 0 1.5V3.9C0 4.73 0.67 5.4 1.5 5.4H17.5C18.33 5.4 19 4.73 19 3.9V1.5C19 0.67 18.33 0 17.5 0ZM2.83 3.13C2.83 3.46 2.56 3.73 2.23 3.73H1.78C1.45 3.73 1.18 3.46 1.18 3.13V2.43C1.18 2.1 1.45 1.83 1.78 1.83H2.23C2.56 1.83 2.83 2.1 2.83 2.43V3.13ZM5.06 3.13C5.06 3.46 4.79 3.73 4.46 3.73H4C3.67 3.73 3.4 3.46 3.4 3.13V2.43C3.4 2.1 3.67 1.83 4 1.83H4.46C4.79 1.83 5.06 2.1 5.06 2.43V3.13ZM17.65 3.13C17.65 3.46 17.38 3.73 17.05 3.73H16.59C16.26 3.73 15.99 3.46 15.99 3.13V2.43C15.99 2.1 16.26 1.83 16.59 1.83H17.05C17.38 1.83 17.65 2.1 17.65 2.43V3.13Z" fill="#757575"/>
<path d="M17.5 6.89001H1.5C0.67 6.89001 0 7.56002 0 8.39002V10.79C0 11.62 0.67 12.29 1.5 12.29H17.5C18.33 12.29 19 11.62 19 10.79V8.39002C19 7.56002 18.33 6.89001 17.5 6.89001ZM2.83 10.02C2.83 10.35 2.56 10.62 2.23 10.62H1.78C1.45 10.62 1.18 10.35 1.18 10.02V9.32001C1.18 8.99001 1.45 8.72002 1.78 8.72002H2.23C2.56 8.72002 2.83 8.99001 2.83 9.32001V10.02ZM4 10.62C3.67 10.62 3.4 10.35 3.4 10.02V9.32001C3.4 8.99001 3.67 8.72002 4 8.72002H4.46C4.79 8.72002 5.06 8.99001 5.06 9.32001V10.02C5.06 10.35 4.79 10.62 4.46 10.62H4ZM14.09 11.87H5.18C5.01 11.87 4.88 11.73 4.88 11.57C4.88 11.41 5.01 11.28 5.18 11.28H14.09C14.25 11.28 14.38 11.41 14.38 11.57C14.38 11.73 14.25 11.87 14.09 11.87ZM17.65 10.02C17.65 10.35 17.38 10.62 17.05 10.62H16.59C16.26 10.62 15.99 10.35 15.99 10.02V9.32001C15.99 8.99001 16.26 8.72002 16.59 8.72002H17.05C17.38 8.72002 17.65 8.99001 17.65 9.32001V10.02Z" fill="#757575"/>
<path d="M17.5 13.98H1.5C0.67 13.98 0 14.65 0 15.48V17.88C0 18.71 0.67 19.38 1.5 19.38H17.5C18.33 19.38 19 18.71 19 17.88V15.48C19 14.65 18.33 13.98 17.5 13.98ZM2.83 17.11C2.83 17.44 2.56 17.71 2.23 17.71H1.78C1.45 17.71 1.18 17.44 1.18 17.11V16.41C1.18 16.08 1.45 15.81 1.78 15.81H2.23C2.56 15.81 2.83 16.08 2.83 16.41V17.11ZM4 17.71C3.67 17.71 3.4 17.44 3.4 17.11V16.41C3.4 16.08 3.67 15.81 4 15.81H4.46C4.79 15.81 5.06 16.08 5.06 16.41V17.11C5.06 17.44 4.79 17.71 4.46 17.71H4ZM14.09 18.95H5.18C5.01 18.95 4.88 18.82 4.88 18.66C4.88 18.5 5.01 18.36 5.18 18.36H14.09C14.25 18.36 14.38 18.5 14.38 18.66C14.38 18.82 14.25 18.95 14.09 18.95ZM17.65 17.11C17.65 17.44 17.38 17.71 17.05 17.71H16.59C16.26 17.71 15.99 17.44 15.99 17.11V16.41C15.99 16.08 16.26 15.81 16.59 15.81H17.05C17.38 15.81 17.65 16.08 17.65 16.41V17.11Z" fill="#757575"/>
<path d="M11.08 26.81V26.52H10.46V26.81H10.03V27.92H11.51V26.81H11.08ZM11.08 26.81V26.52H10.46V26.81H10.03V27.92H11.51V26.81H11.08ZM11.08 26.81V26.52H10.46V26.81H10.03V27.92H11.51V26.81H11.08ZM13.8 26.81V26.52H13.18V26.81H12.75V27.92H14.23V26.81H13.8ZM13.81 23.79V23.5H13.19V23.79H12.76V24.9H14.24V23.79H13.81ZM13.81 23.79V23.5H13.19V23.79H12.76V24.9H14.24V23.79H13.81ZM13.8 26.81V26.52H13.18V26.81H12.75V27.92H14.23V26.81H13.8ZM11.08 26.81V26.52H10.46V26.81H10.03V27.92H11.51V26.81H11.08ZM11.08 26.81V26.52H10.46V26.81H10.03V27.92H11.51V26.81H11.08ZM11.09 23.79V23.5H10.47V23.79H10.04V24.9H11.52V23.79H11.09ZM13.8 26.81V26.52H13.18V26.81H12.75V27.92H14.23V26.81H13.8ZM13.81 23.79V23.5H13.19V23.79H12.76V24.9H14.24V23.79H13.81ZM16.54 23.79V23.5H15.92V23.79H15.49V24.9H16.97V23.79H16.54ZM16.54 23.79V23.5H15.92V23.79H15.49V24.9H16.97V23.79H16.54ZM13.81 23.79V23.5H13.19V23.79H12.76V24.9H14.24V23.79H13.81ZM13.8 26.81V26.52H13.18V26.81H12.75V27.92H14.23V26.81H13.8ZM11.09 23.79V23.5H10.47V23.79H10.04V24.9H11.52V23.79H11.09ZM11.08 26.81V26.52H10.46V26.81H10.03V27.92H11.51V26.81H11.08ZM11.08 26.81V26.52H10.46V26.81H10.03V27.92H11.51V26.81H11.08ZM11.09 23.79V23.5H10.47V23.79H10.04V24.9H11.52V23.79H11.09ZM13.8 26.81V26.52H13.18V26.81H12.75V27.92H14.23V26.81H13.8ZM13.81 23.79V23.5H13.19V23.79H12.76V24.9H14.24V23.79H13.81ZM16.53 26.81V26.52H15.91V26.81H15.48V27.92H16.96V26.81H16.53ZM16.54 23.79V23.5H15.92V23.79H15.49V24.9H16.97V23.79H16.54ZM16.54 23.79V23.5H15.92V23.79H15.49V24.9H16.97V23.79H16.54ZM16.53 26.81V26.52H15.91V26.81H15.48V27.92H16.96V26.81H16.53ZM13.81 23.79V23.5H13.19V23.79H12.76V24.9H14.24V23.79H13.81ZM13.8 26.81V26.52H13.18V26.81H12.75V27.92H14.23V26.81H13.8ZM11.09 23.79V23.5H10.47V23.79H10.04V24.9H11.52V23.79H11.09ZM11.08 26.81V26.52H10.46V26.81H10.03V27.92H11.51V26.81H11.08ZM11.08 26.81V26.52H10.46V26.81H10.03V27.92H11.51V26.81H11.08ZM11.09 23.79V23.5H10.47V23.79H10.04V24.9H11.52V23.79H11.09ZM13.8 26.81V26.52H13.18V26.81H12.75V27.92H14.23V26.81H13.8ZM13.81 23.79V23.5H13.19V23.79H12.76V24.9H14.24V23.79H13.81ZM16.53 26.81V26.52H15.91V26.81H15.48V27.92H16.96V26.81H16.53ZM16.54 23.79V23.5H15.92V23.79H15.49V24.9H16.97V23.79H16.54ZM16.54 23.79V23.5H15.92V23.79H15.49V24.9H16.97V23.79H16.54ZM16.53 26.81V26.52H15.91V26.81H15.48V27.92H16.96V26.81H16.53ZM13.81 23.79V23.5H13.19V23.79H12.76V24.9H14.24V23.79H13.81ZM13.8 26.81V26.52H13.18V26.81H12.75V27.92H14.23V26.81H13.8ZM11.09 23.79V23.5H10.47V23.79H10.04V24.9H11.52V23.79H11.09ZM11.08 26.81V26.52H10.46V26.81H10.03V27.92H11.51V26.81H11.08ZM17.6 21.87H1.60001C0.770006 21.87 0.100006 22.54 0.100006 23.37V28.5C0.100006 29.33 0.770006 30 1.60001 30H17.6C18.43 30 19.1 29.33 19.1 28.5V23.37C19.1 22.54 18.43 21.87 17.6 21.87ZM2.23 28.63C2.23 28.83 2.01001 28.99 1.81001 28.99C1.61001 28.99 1.4 28.83 1.4 28.63V28.11C1.4 27.91 1.61001 27.75 1.81001 27.75C2.01001 27.75 2.23 27.91 2.23 28.11V28.63ZM2.23 23.82C2.23 24.02 2.01001 24.18 1.81001 24.18C1.61001 24.18 1.4 24.02 1.4 23.82V23.3C1.4 23.1 1.61001 22.94 1.81001 22.94C2.01001 22.94 2.23 23.1 2.23 23.3V23.82ZM8.59001 28.99H3.31001V28.26H8.59001V28.99ZM8.59001 27.75H3.31001V27.01H8.59001V27.75ZM8.59001 26.35H3.31001V25.62H8.59001V26.35ZM8.59001 25.11H3.31001V24.38H8.59001V25.11ZM8.59001 23.87H3.31001V23.13H8.59001V23.87ZM11.94 28.37H9.60001V26.15H11.94V28.37ZM11.95 25.35H9.61001V23.13H11.95V25.35ZM14.66 28.37H12.32V26.15H14.66V28.37ZM14.67 25.35H12.33V23.13H14.67V25.35ZM17.39 28.37H15.05V26.15H17.39V28.37ZM17.4 25.35H15.06V23.13H17.4V25.35ZM16.97 23.79H16.54V23.5H15.92V23.79H15.49V24.9H16.97V23.79ZM16.96 26.81H16.53V26.52H15.91V26.81H15.48V27.92H16.96V26.81ZM14.24 23.79H13.81V23.5H13.19V23.79H12.76V24.9H14.24V23.79ZM14.23 26.81H13.8V26.52H13.18V26.81H12.75V27.92H14.23V26.81ZM11.52 23.79H11.09V23.5H10.47V23.79H10.04V24.9H11.52V23.79ZM11.51 26.81H11.08V26.52H10.46V26.81H10.03V27.92H11.51V26.81ZM11.08 26.81V26.52H10.46V26.81H10.03V27.92H11.51V26.81H11.08ZM11.09 23.79V23.5H10.47V23.79H10.04V24.9H11.52V23.79H11.09ZM13.8 26.81V26.52H13.18V26.81H12.75V27.92H14.23V26.81H13.8ZM13.81 23.79V23.5H13.19V23.79H12.76V24.9H14.24V23.79H13.81ZM16.53 26.81V26.52H15.91V26.81H15.48V27.92H16.96V26.81H16.53ZM16.54 23.79V23.5H15.92V23.79H15.49V24.9H16.97V23.79H16.54ZM16.54 23.79V23.5H15.92V23.79H15.49V24.9H16.97V23.79H16.54ZM16.53 26.81V26.52H15.91V26.81H15.48V27.92H16.96V26.81H16.53ZM13.81 23.79V23.5H13.19V23.79H12.76V24.9H14.24V23.79H13.81ZM13.8 26.81V26.52H13.18V26.81H12.75V27.92H14.23V26.81H13.8ZM11.09 23.79V23.5H10.47V23.79H10.04V24.9H11.52V23.79H11.09ZM11.08 26.81V26.52H10.46V26.81H10.03V27.92H11.51V26.81H11.08ZM11.08 26.81V26.52H10.46V26.81H10.03V27.92H11.51V26.81H11.08ZM11.09 23.79V23.5H10.47V23.79H10.04V24.9H11.52V23.79H11.09ZM13.8 26.81V26.52H13.18V26.81H12.75V27.92H14.23V26.81H13.8ZM13.81 23.79V23.5H13.19V23.79H12.76V24.9H14.24V23.79H13.81ZM16.53 26.81V26.52H15.91V26.81H15.48V27.92H16.96V26.81H16.53ZM16.54 23.79V23.5H15.92V23.79H15.49V24.9H16.97V23.79H16.54ZM16.54 23.79V23.5H15.92V23.79H15.49V24.9H16.97V23.79H16.54ZM16.53 26.81V26.52H15.91V26.81H15.48V27.92H16.96V26.81H16.53ZM13.81 23.79V23.5H13.19V23.79H12.76V24.9H14.24V23.79H13.81ZM13.8 26.81V26.52H13.18V26.81H12.75V27.92H14.23V26.81H13.8ZM11.09 23.79V23.5H10.47V23.79H10.04V24.9H11.52V23.79H11.09ZM11.08 26.81V26.52H10.46V26.81H10.03V27.92H11.51V26.81H11.08ZM11.08 26.81V26.52H10.46V26.81H10.03V27.92H11.51V26.81H11.08ZM11.09 23.79V23.5H10.47V23.79H10.04V24.9H11.52V23.79H11.09ZM13.8 26.81V26.52H13.18V26.81H12.75V27.92H14.23V26.81H13.8ZM13.81 23.79V23.5H13.19V23.79H12.76V24.9H14.24V23.79H13.81ZM13.81 23.79V23.5H13.19V23.79H12.76V24.9H14.24V23.79H13.81ZM13.8 26.81V26.52H13.18V26.81H12.75V27.92H14.23V26.81H13.8ZM11.09 23.79V23.5H10.47V23.79H10.04V24.9H11.52V23.79H11.09ZM11.08 26.81V26.52H10.46V26.81H10.03V27.92H11.51V26.81H11.08ZM11.08 26.81V26.52H10.46V26.81H10.03V27.92H11.51V26.81H11.08ZM13.8 26.81V26.52H13.18V26.81H12.75V27.92H14.23V26.81H13.8ZM13.8 26.81V26.52H13.18V26.81H12.75V27.92H14.23V26.81H13.8ZM11.08 26.81V26.52H10.46V26.81H10.03V27.92H11.51V26.81H11.08Z" fill="#757575"/>
<path d="M85.46 27.17C85.49 27.16 85.51 27.15 85.53 27.14C85.92 26.96 86.23 26.7 86.43 26.35C86.64 26 86.75 25.59 86.75 25.1C86.75 24.62 86.64 24.2 86.44 23.85C86.23 23.49 85.94 23.22 85.55 23.02C85.16 22.83 84.69 22.73 84.14 22.73H81.27V30H82.81V27.42H83.93L85.31 30H87.01L85.46 27.17ZM83.85 26.19H82.81V23.98H83.85C84.14 23.98 84.39 24.03 84.58 24.12C84.78 24.2 84.92 24.33 85.02 24.49C85.11 24.66 85.16 24.86 85.16 25.1C85.16 25.34 85.11 25.54 85.02 25.7C84.92 25.86 84.78 25.98 84.58 26.07C84.39 26.15 84.15 26.19 83.85 26.19Z" fill="#333333"/>
<circle cx="108" cy="26" r="3" fill="#FED700"/>
</svg>
