<svg width="115" height="33" viewBox="0 0 115 33" fill="none" xmlns="http://www.w3.org/2000/svg">
<path d="M60.54 2.09003V21H64.54V2.09003H60.54ZM83.39 2.09003L78.19 14.8H77.96L72.76 2.09003H67.83V21H71.7V8.65003H71.86L76.76 20.91H79.4L84.29 8.69003H84.45V21H88.32V2.09003H83.39ZM95.62 17.7V13.19H103.7V9.89003H95.62V5.39003H104.36V2.09003H91.62V21H104.4V17.7H95.62Z" fill="white"/>
<path d="M54.38 13.65C54.44 13.63 54.49 13.61 54.55 13.58C55.58 13.1 56.36 12.41 56.9 11.51C57.44 10.6 57.71 9.52003 57.71 8.27003C57.71 7.02003 57.45 5.93003 56.91 5.01003C56.38 4.08003 55.61 3.36003 54.59 2.86003C53.58 2.35003 52.37 2.09003 50.94 2.09003H43.48V21H47.48V14.3H50.4L53.98 21H58.39L54.38 13.65ZM47.48 5.36003H50.17C50.94 5.36003 51.58 5.47003 52.08 5.70003C52.59 5.92003 52.97 6.25003 53.22 6.68003C53.47 7.11003 53.6 7.64003 53.6 8.27003C53.6 8.89003 53.47 9.41003 53.22 9.83003C52.97 10.25 52.6 10.56 52.09 10.77C51.59 10.98 50.95 11.08 50.19 11.08H47.48V5.36003Z" fill="white"/>
<path d="M40.08 5.17003C39.55 4.21003 38.78 3.45003 37.77 2.91003C36.76 2.36003 35.54 2.09003 34.1 2.09003H26.64V21H30.64V14.87H34C35.45 14.87 36.69 14.6 37.71 14.07C38.74 13.53 39.53 12.78 40.07 11.82C40.61 10.86 40.88 9.75003 40.88 8.50003C40.88 7.24003 40.61 6.13003 40.08 5.17003ZM36.38 10.15C36.14 10.63 35.76 11 35.26 11.27C34.76 11.53 34.13 11.67 33.36 11.67H30.64V5.36003H33.34C34.11 5.36003 34.75 5.49003 35.26 5.76003C35.76 6.01003 36.14 6.38003 36.38 6.86003C36.64 7.32003 36.76 7.87003 36.76 8.50003C36.76 9.12003 36.64 9.67003 36.38 10.15Z" fill="white"/>
<path d="M31.98 29.12C31.88 28.88 31.73 28.68 31.53 28.51C31.34 28.33 31.11 28.19 30.84 28.07C30.58 27.95 30.29 27.86 29.97 27.78L29.32 27.63C29.16 27.59 29.01 27.55 28.87 27.5C28.73 27.45 28.61 27.39 28.5 27.32C28.39 27.25 28.31 27.16 28.25 27.07C28.19 26.97 28.16 26.86 28.17 26.73C28.17 26.57 28.21 26.43 28.3 26.31C28.39 26.18 28.53 26.09 28.7 26.02C28.87 25.95 29.08 25.91 29.33 25.91C29.7 25.91 30 25.99 30.21 26.15C30.43 26.31 30.55 26.53 30.58 26.82H32.05C32.04 26.39 31.93 26 31.7 25.68C31.48 25.35 31.16 25.09 30.76 24.9C30.36 24.72 29.88 24.63 29.35 24.63C28.81 24.63 28.34 24.72 27.92 24.9C27.51 25.09 27.18 25.35 26.94 25.68C26.7 26 26.59 26.39 26.59 26.83C26.59 27.37 26.76 27.79 27.12 28.11C27.47 28.43 27.96 28.66 28.57 28.81L29.36 29.01C29.63 29.07 29.85 29.14 30.03 29.22C30.22 29.3 30.36 29.4 30.45 29.51C30.55 29.62 30.6 29.76 30.6 29.92C30.6 30.09 30.55 30.25 30.44 30.38C30.33 30.52 30.18 30.62 29.99 30.7C29.8 30.78 29.57 30.81 29.31 30.81C29.04 30.81 28.81 30.77 28.6 30.69C28.39 30.61 28.22 30.49 28.1 30.33C27.97 30.16 27.9 29.96 27.89 29.72H26.4C26.41 30.24 26.54 30.68 26.78 31.03C27.02 31.39 27.36 31.65 27.79 31.83C28.23 32.01 28.74 32.1 29.33 32.1C29.92 32.1 30.42 32.01 30.84 31.84C31.27 31.66 31.59 31.4 31.81 31.08C32.03 30.75 32.15 30.37 32.15 29.92C32.15 29.62 32.09 29.35 31.98 29.12ZM34.72 30.73V29H37.83V27.73H34.72V26H38.09V24.73H33.18V32H38.1V30.73H34.72ZM50.58 24.73L48.81 30.25H48.75L46.99 24.73H45.28L47.79 32H49.77L52.28 24.73H50.58ZM54.69 30.73V29H57.8V27.73H54.69V26H58.06V24.73H53.16V32H58.07V30.73H54.69ZM75.32 25.91C75.12 25.54 74.82 25.25 74.43 25.04C74.05 24.83 73.58 24.73 73.02 24.73H70.16V28.365V32H71.69V29.64H72.99C73.54 29.64 74.02 29.54 74.41 29.33C74.81 29.13 75.11 28.84 75.32 28.47C75.53 28.1 75.63 27.67 75.63 27.19C75.63 26.71 75.53 26.28 75.32 25.91ZM73.9 27.83C73.81 28.01 73.66 28.15 73.47 28.26C73.28 28.36 73.03 28.41 72.74 28.41H71.69V25.98H72.73C73.03 25.98 73.27 26.04 73.47 26.14C73.66 26.24 73.81 26.38 73.9 26.56C74 26.74 74.05 26.95 74.05 27.19C74.05 27.43 74 27.64 73.9 27.83ZM89.56 24.73V26H91.78V32H93.3V26H95.53V24.73H89.56ZM101.86 29.12C101.76 28.88 101.61 28.68 101.41 28.51C101.22 28.33 100.99 28.19 100.72 28.07C100.46 27.95 100.17 27.86 99.85 27.78L99.2 27.63C99.04 27.59 98.89 27.55 98.75 27.5C98.61 27.45 98.49 27.39 98.38 27.32C98.27 27.25 98.19 27.16 98.13 27.07C98.07 26.97 98.04 26.86 98.05 26.73C98.05 26.57 98.09 26.43 98.18 26.31C98.27 26.18 98.41 26.09 98.58 26.02C98.75 25.95 98.96 25.91 99.22 25.91C99.58 25.91 99.88 25.99 100.09 26.15C100.31 26.31 100.43 26.53 100.46 26.82H101.93C101.92 26.39 101.81 26 101.58 25.68C101.36 25.35 101.04 25.09 100.64 24.9C100.24 24.72 99.77 24.63 99.23 24.63C98.7 24.63 98.22 24.72 97.81 24.9C97.39 25.09 97.06 25.35 96.82 25.68C96.59 26 96.47 26.39 96.47 26.83C96.47 27.37 96.64 27.79 97 28.11C97.35 28.43 97.84 28.66 98.45 28.81L99.24 29.01C99.51 29.07 99.73 29.14 99.92 29.22C100.1 29.3 100.24 29.4 100.33 29.51C100.43 29.62 100.48 29.76 100.48 29.92C100.48 30.09 100.43 30.25 100.32 30.38C100.21 30.52 100.06 30.62 99.87 30.7C99.68 30.78 99.45 30.81 99.19 30.81C98.93 30.81 98.69 30.77 98.48 30.69C98.27 30.61 98.1 30.49 97.98 30.33C97.85 30.16 97.78 29.96 97.77 29.72H96.28C96.29 30.24 96.42 30.68 96.66 31.03C96.9 31.39 97.24 31.65 97.67 31.83C98.11 32.01 98.62 32.1 99.21 32.1C99.8 32.1 100.31 32.01 100.72 31.84C101.15 31.66 101.47 31.4 101.69 31.08C101.92 30.75 102.03 30.37 102.03 29.92C102.03 29.62 101.97 29.35 101.86 29.12Z" fill="white"/>
<path d="M43.5 29.17C43.52 29.16 43.55 29.15 43.57 29.14C43.96 28.96 44.26 28.7 44.47 28.35C44.68 28 44.78 27.59 44.78 27.1C44.78 26.62 44.68 26.2 44.47 25.85C44.27 25.49 43.97 25.22 43.58 25.02C43.2 24.83 42.73 24.73 42.18 24.73H39.31V32H40.85V29.42H41.97L43.35 32H45.04L43.5 29.17ZM41.89 28.19H40.85V25.98H41.88C42.18 25.98 42.42 26.03 42.62 26.12C42.81 26.2 42.96 26.33 43.05 26.49C43.15 26.66 43.2 26.86 43.2 27.1C43.2 27.34 43.15 27.54 43.05 27.7C42.96 27.86 42.82 27.98 42.62 28.07C42.43 28.15 42.18 28.19 41.89 28.19Z" fill="white"/>
<path d="M63.47 29.17C63.49 29.16 63.52 29.15 63.54 29.14C63.93 28.96 64.23 28.7 64.44 28.35C64.65 28 64.75 27.59 64.75 27.1C64.75 26.62 64.65 26.2 64.45 25.85C64.24 25.49 63.94 25.22 63.55 25.02C63.17 24.83 62.7 24.73 62.15 24.73H59.28V32H60.82V29.42H61.94L63.32 32H65.01L63.47 29.17ZM61.86 28.19H60.82V25.98H61.85C62.15 25.98 62.39 26.03 62.59 26.12C62.78 26.2 62.93 26.33 63.03 26.49C63.12 26.66 63.17 26.86 63.17 27.1C63.17 27.34 63.12 27.54 63.03 27.7C62.93 27.86 62.79 27.98 62.59 28.07C62.4 28.15 62.15 28.19 61.86 28.19Z" fill="white"/>
<path d="M79.89 24.73H77.91L75.4 32H77.04L77.58 30.34H80.21L80.75 32H82.4L79.89 24.73ZM77.97 29.14L78.87 26.39H78.93L79.82 29.14H77.97Z" fill="white"/>
<path d="M17.5 2H1.5C0.67 2 0 2.67 0 3.5V5.9C0 6.73 0.67 7.4 1.5 7.4H17.5C18.33 7.4 19 6.73 19 5.9V3.5C19 2.67 18.33 2 17.5 2ZM2.83 5.13C2.83 5.46 2.56 5.73 2.23 5.73H1.78C1.45 5.73 1.18 5.46 1.18 5.13V4.43C1.18 4.1 1.45 3.83 1.78 3.83H2.23C2.56 3.83 2.83 4.1 2.83 4.43V5.13ZM5.06 5.13C5.06 5.46 4.79 5.73 4.46 5.73H4C3.67 5.73 3.4 5.46 3.4 5.13V4.43C3.4 4.1 3.67 3.83 4 3.83H4.46C4.79 3.83 5.06 4.1 5.06 4.43V5.13ZM17.65 5.13C17.65 5.46 17.38 5.73 17.05 5.73H16.59C16.26 5.73 15.99 5.46 15.99 5.13V4.43C15.99 4.1 16.26 3.83 16.59 3.83H17.05C17.38 3.83 17.65 4.1 17.65 4.43V5.13Z" fill="#5F63F2"/>
<path d="M17.5 8.89001H1.5C0.67 8.89001 0 9.56003 0 10.39V12.79C0 13.62 0.67 14.29 1.5 14.29H17.5C18.33 14.29 19 13.62 19 12.79V10.39C19 9.56003 18.33 8.89001 17.5 8.89001ZM2.83 12.02C2.83 12.35 2.56 12.62 2.23 12.62H1.78C1.45 12.62 1.18 12.35 1.18 12.02V11.32C1.18 10.99 1.45 10.72 1.78 10.72H2.23C2.56 10.72 2.83 10.99 2.83 11.32V12.02ZM4 12.62C3.67 12.62 3.4 12.35 3.4 12.02V11.32C3.4 10.99 3.67 10.72 4 10.72H4.46C4.79 10.72 5.06 10.99 5.06 11.32V12.02C5.06 12.35 4.79 12.62 4.46 12.62H4ZM14.09 13.87H5.18C5.01 13.87 4.88 13.73 4.88 13.57C4.88 13.41 5.01 13.28 5.18 13.28H14.09C14.25 13.28 14.38 13.41 14.38 13.57C14.38 13.73 14.25 13.87 14.09 13.87ZM17.65 12.02C17.65 12.35 17.38 12.62 17.05 12.62H16.59C16.26 12.62 15.99 12.35 15.99 12.02V11.32C15.99 10.99 16.26 10.72 16.59 10.72H17.05C17.38 10.72 17.65 10.99 17.65 11.32V12.02Z" fill="#5F63F2"/>
<path d="M17.5 15.98H1.5C0.67 15.98 0 16.65 0 17.48V19.88C0 20.71 0.67 21.38 1.5 21.38H17.5C18.33 21.38 19 20.71 19 19.88V17.48C19 16.65 18.33 15.98 17.5 15.98ZM2.83 19.11C2.83 19.44 2.56 19.71 2.23 19.71H1.78C1.45 19.71 1.18 19.44 1.18 19.11V18.41C1.18 18.08 1.45 17.81 1.78 17.81H2.23C2.56 17.81 2.83 18.08 2.83 18.41V19.11ZM4 19.71C3.67 19.71 3.4 19.44 3.4 19.11V18.41C3.4 18.08 3.67 17.81 4 17.81H4.46C4.79 17.81 5.06 18.08 5.06 18.41V19.11C5.06 19.44 4.79 19.71 4.46 19.71H4ZM14.09 20.95H5.18C5.01 20.95 4.88 20.82 4.88 20.66C4.88 20.5 5.01 20.36 5.18 20.36H14.09C14.25 20.36 14.38 20.5 14.38 20.66C14.38 20.82 14.25 20.95 14.09 20.95ZM17.65 19.11C17.65 19.44 17.38 19.71 17.05 19.71H16.59C16.26 19.71 15.99 19.44 15.99 19.11V18.41C15.99 18.08 16.26 17.81 16.59 17.81H17.05C17.38 17.81 17.65 18.08 17.65 18.41V19.11Z" fill="#5F63F2"/>
<path d="M11.08 28.81V28.52H10.46V28.81H10.03V29.92H11.51V28.81H11.08ZM11.08 28.81V28.52H10.46V28.81H10.03V29.92H11.51V28.81H11.08ZM11.08 28.81V28.52H10.46V28.81H10.03V29.92H11.51V28.81H11.08ZM13.8 28.81V28.52H13.18V28.81H12.75V29.92H14.23V28.81H13.8ZM13.81 25.79V25.5H13.19V25.79H12.76V26.9H14.24V25.79H13.81ZM13.81 25.79V25.5H13.19V25.79H12.76V26.9H14.24V25.79H13.81ZM13.8 28.81V28.52H13.18V28.81H12.75V29.92H14.23V28.81H13.8ZM11.08 28.81V28.52H10.46V28.81H10.03V29.92H11.51V28.81H11.08ZM11.08 28.81V28.52H10.46V28.81H10.03V29.92H11.51V28.81H11.08ZM11.09 25.79V25.5H10.47V25.79H10.04V26.9H11.52V25.79H11.09ZM13.8 28.81V28.52H13.18V28.81H12.75V29.92H14.23V28.81H13.8ZM13.81 25.79V25.5H13.19V25.79H12.76V26.9H14.24V25.79H13.81ZM16.54 25.79V25.5H15.92V25.79H15.49V26.9H16.97V25.79H16.54ZM16.54 25.79V25.5H15.92V25.79H15.49V26.9H16.97V25.79H16.54ZM13.81 25.79V25.5H13.19V25.79H12.76V26.9H14.24V25.79H13.81ZM13.8 28.81V28.52H13.18V28.81H12.75V29.92H14.23V28.81H13.8ZM11.09 25.79V25.5H10.47V25.79H10.04V26.9H11.52V25.79H11.09ZM11.08 28.81V28.52H10.46V28.81H10.03V29.92H11.51V28.81H11.08ZM11.08 28.81V28.52H10.46V28.81H10.03V29.92H11.51V28.81H11.08ZM11.09 25.79V25.5H10.47V25.79H10.04V26.9H11.52V25.79H11.09ZM13.8 28.81V28.52H13.18V28.81H12.75V29.92H14.23V28.81H13.8ZM13.81 25.79V25.5H13.19V25.79H12.76V26.9H14.24V25.79H13.81ZM16.53 28.81V28.52H15.91V28.81H15.48V29.92H16.96V28.81H16.53ZM16.54 25.79V25.5H15.92V25.79H15.49V26.9H16.97V25.79H16.54ZM16.54 25.79V25.5H15.92V25.79H15.49V26.9H16.97V25.79H16.54ZM16.53 28.81V28.52H15.91V28.81H15.48V29.92H16.96V28.81H16.53ZM13.81 25.79V25.5H13.19V25.79H12.76V26.9H14.24V25.79H13.81ZM13.8 28.81V28.52H13.18V28.81H12.75V29.92H14.23V28.81H13.8ZM11.09 25.79V25.5H10.47V25.79H10.04V26.9H11.52V25.79H11.09ZM11.08 28.81V28.52H10.46V28.81H10.03V29.92H11.51V28.81H11.08ZM11.08 28.81V28.52H10.46V28.81H10.03V29.92H11.51V28.81H11.08ZM11.09 25.79V25.5H10.47V25.79H10.04V26.9H11.52V25.79H11.09ZM13.8 28.81V28.52H13.18V28.81H12.75V29.92H14.23V28.81H13.8ZM13.81 25.79V25.5H13.19V25.79H12.76V26.9H14.24V25.79H13.81ZM16.53 28.81V28.52H15.91V28.81H15.48V29.92H16.96V28.81H16.53ZM16.54 25.79V25.5H15.92V25.79H15.49V26.9H16.97V25.79H16.54ZM16.54 25.79V25.5H15.92V25.79H15.49V26.9H16.97V25.79H16.54ZM16.53 28.81V28.52H15.91V28.81H15.48V29.92H16.96V28.81H16.53ZM13.81 25.79V25.5H13.19V25.79H12.76V26.9H14.24V25.79H13.81ZM13.8 28.81V28.52H13.18V28.81H12.75V29.92H14.23V28.81H13.8ZM11.09 25.79V25.5H10.47V25.79H10.04V26.9H11.52V25.79H11.09ZM11.08 28.81V28.52H10.46V28.81H10.03V29.92H11.51V28.81H11.08ZM17.6 23.87H1.60001C0.770006 23.87 0.100006 24.54 0.100006 25.37V30.5C0.100006 31.33 0.770006 32 1.60001 32H17.6C18.43 32 19.1 31.33 19.1 30.5V25.37C19.1 24.54 18.43 23.87 17.6 23.87ZM2.23 30.63C2.23 30.83 2.01001 30.99 1.81001 30.99C1.61001 30.99 1.4 30.83 1.4 30.63V30.11C1.4 29.91 1.61001 29.75 1.81001 29.75C2.01001 29.75 2.23 29.91 2.23 30.11V30.63ZM2.23 25.82C2.23 26.02 2.01001 26.18 1.81001 26.18C1.61001 26.18 1.4 26.02 1.4 25.82V25.3C1.4 25.1 1.61001 24.94 1.81001 24.94C2.01001 24.94 2.23 25.1 2.23 25.3V25.82ZM8.59001 30.99H3.31001V30.26H8.59001V30.99ZM8.59001 29.75H3.31001V29.01H8.59001V29.75ZM8.59001 28.35H3.31001V27.62H8.59001V28.35ZM8.59001 27.11H3.31001V26.38H8.59001V27.11ZM8.59001 25.87H3.31001V25.13H8.59001V25.87ZM11.94 30.37H9.60001V28.15H11.94V30.37ZM11.95 27.35H9.61001V25.13H11.95V27.35ZM14.66 30.37H12.32V28.15H14.66V30.37ZM14.67 27.35H12.33V25.13H14.67V27.35ZM17.39 30.37H15.05V28.15H17.39V30.37ZM17.4 27.35H15.06V25.13H17.4V27.35ZM16.97 25.79H16.54V25.5H15.92V25.79H15.49V26.9H16.97V25.79ZM16.96 28.81H16.53V28.52H15.91V28.81H15.48V29.92H16.96V28.81ZM14.24 25.79H13.81V25.5H13.19V25.79H12.76V26.9H14.24V25.79ZM14.23 28.81H13.8V28.52H13.18V28.81H12.75V29.92H14.23V28.81ZM11.52 25.79H11.09V25.5H10.47V25.79H10.04V26.9H11.52V25.79ZM11.51 28.81H11.08V28.52H10.46V28.81H10.03V29.92H11.51V28.81ZM11.08 28.81V28.52H10.46V28.81H10.03V29.92H11.51V28.81H11.08ZM11.09 25.79V25.5H10.47V25.79H10.04V26.9H11.52V25.79H11.09ZM13.8 28.81V28.52H13.18V28.81H12.75V29.92H14.23V28.81H13.8ZM13.81 25.79V25.5H13.19V25.79H12.76V26.9H14.24V25.79H13.81ZM16.53 28.81V28.52H15.91V28.81H15.48V29.92H16.96V28.81H16.53ZM16.54 25.79V25.5H15.92V25.79H15.49V26.9H16.97V25.79H16.54ZM16.54 25.79V25.5H15.92V25.79H15.49V26.9H16.97V25.79H16.54ZM16.53 28.81V28.52H15.91V28.81H15.48V29.92H16.96V28.81H16.53ZM13.81 25.79V25.5H13.19V25.79H12.76V26.9H14.24V25.79H13.81ZM13.8 28.81V28.52H13.18V28.81H12.75V29.92H14.23V28.81H13.8ZM11.09 25.79V25.5H10.47V25.79H10.04V26.9H11.52V25.79H11.09ZM11.08 28.81V28.52H10.46V28.81H10.03V29.92H11.51V28.81H11.08ZM11.08 28.81V28.52H10.46V28.81H10.03V29.92H11.51V28.81H11.08ZM11.09 25.79V25.5H10.47V25.79H10.04V26.9H11.52V25.79H11.09ZM13.8 28.81V28.52H13.18V28.81H12.75V29.92H14.23V28.81H13.8ZM13.81 25.79V25.5H13.19V25.79H12.76V26.9H14.24V25.79H13.81ZM16.53 28.81V28.52H15.91V28.81H15.48V29.92H16.96V28.81H16.53ZM16.54 25.79V25.5H15.92V25.79H15.49V26.9H16.97V25.79H16.54ZM16.54 25.79V25.5H15.92V25.79H15.49V26.9H16.97V25.79H16.54ZM16.53 28.81V28.52H15.91V28.81H15.48V29.92H16.96V28.81H16.53ZM13.81 25.79V25.5H13.19V25.79H12.76V26.9H14.24V25.79H13.81ZM13.8 28.81V28.52H13.18V28.81H12.75V29.92H14.23V28.81H13.8ZM11.09 25.79V25.5H10.47V25.79H10.04V26.9H11.52V25.79H11.09ZM11.08 28.81V28.52H10.46V28.81H10.03V29.92H11.51V28.81H11.08ZM11.08 28.81V28.52H10.46V28.81H10.03V29.92H11.51V28.81H11.08ZM11.09 25.79V25.5H10.47V25.79H10.04V26.9H11.52V25.79H11.09ZM13.8 28.81V28.52H13.18V28.81H12.75V29.92H14.23V28.81H13.8ZM13.81 25.79V25.5H13.19V25.79H12.76V26.9H14.24V25.79H13.81ZM13.81 25.79V25.5H13.19V25.79H12.76V26.9H14.24V25.79H13.81ZM13.8 28.81V28.52H13.18V28.81H12.75V29.92H14.23V28.81H13.8ZM11.09 25.79V25.5H10.47V25.79H10.04V26.9H11.52V25.79H11.09ZM11.08 28.81V28.52H10.46V28.81H10.03V29.92H11.51V28.81H11.08ZM11.08 28.81V28.52H10.46V28.81H10.03V29.92H11.51V28.81H11.08ZM13.8 28.81V28.52H13.18V28.81H12.75V29.92H14.23V28.81H13.8ZM13.8 28.81V28.52H13.18V28.81H12.75V29.92H14.23V28.81H13.8ZM11.08 28.81V28.52H10.46V28.81H10.03V29.92H11.51V28.81H11.08Z" fill="#5F63F2"/>
<path d="M87.46 29.17C87.49 29.16 87.51 29.15 87.53 29.14C87.92 28.96 88.23 28.7 88.43 28.35C88.64 28 88.75 27.59 88.75 27.1C88.75 26.62 88.64 26.2 88.44 25.85C88.23 25.49 87.94 25.22 87.55 25.02C87.16 24.83 86.69 24.73 86.14 24.73H83.27V32H84.81V29.42H85.93L87.31 32H89.01L87.46 29.17ZM85.85 28.19H84.81V25.98H85.85C86.14 25.98 86.39 26.03 86.58 26.12C86.78 26.2 86.92 26.33 87.02 26.49C87.11 26.66 87.16 26.86 87.16 27.1C87.16 27.34 87.11 27.54 87.02 27.7C86.92 27.86 86.78 27.98 86.58 28.07C86.39 28.15 86.15 28.19 85.85 28.19Z" fill="white"/>
<path d="M112 32C113.657 32 115 30.6569 115 29C115 27.3431 113.657 26 112 26C110.343 26 109 27.3431 109 29C109 30.6569 110.343 32 112 32Z" fill="#5F63F2"/>
<path d="M110.758 4H110.099L111.103 1.09091H111.896L112.899 4H112.24L111.511 1.75568H111.488L110.758 4ZM110.717 2.85653H112.274V3.33665H110.717V2.85653ZM111.329 9H110.298V6.09091H111.338C111.63 6.09091 111.882 6.14915 112.093 6.26562C112.304 6.38116 112.467 6.54735 112.58 6.7642C112.695 6.98106 112.752 7.24053 112.752 7.54261C112.752 7.84564 112.695 8.10606 112.58 8.32386C112.467 8.54167 112.303 8.70881 112.09 8.82528C111.878 8.94176 111.624 9 111.329 9ZM110.913 8.47301H111.303C111.485 8.47301 111.638 8.44081 111.762 8.37642C111.887 8.31108 111.981 8.21023 112.044 8.07386C112.107 7.93655 112.139 7.75947 112.139 7.54261C112.139 7.32765 112.107 7.15199 112.044 7.01562C111.981 6.87926 111.888 6.77888 111.764 6.71449C111.64 6.65009 111.487 6.6179 111.305 6.6179H110.913V8.47301ZM109.923 11.0909H110.681L111.482 13.0455H111.517L112.318 11.0909H113.076V14H112.48V12.1065H112.455L111.703 13.9858H111.296L110.544 12.0994H110.519V14H109.923V11.0909ZM111.807 16.0909V19H111.192V16.0909H111.807ZM112.715 21.0909V24H112.184L110.919 22.169H110.897V24H110.282V21.0909H110.822L112.078 22.9205H112.103V21.0909H112.715Z" fill="white"/>
</svg>
